<?xml version="1.0" encoding="UTF-8"?>
<svg width="800" height="600" viewBox="0 0 800 600" fill="none" xmlns="http://www.w3.org/2000/svg">
  <defs>
    <linearGradient id="premium-white" x1="0%" y1="0%" x2="100%" y2="100%">
      <stop offset="0%" style="stop-color:#FFFFFF"/>
      <stop offset="50%" style="stop-color:#F8FAFC"/>
      <stop offset="100%" style="stop-color:#F1F5F9"/>
    </linearGradient>
    
    <linearGradient id="metallic-edge" x1="0%" y1="0%" x2="100%" y2="100%">
      <stop offset="0%" style="stop-color:#E2E8F0"/>
      <stop offset="50%" style="stop-color:#CBD5E1"/>
      <stop offset="100%" style="stop-color:#94A3B8"/>
    </linearGradient>
    
    <filter id="premium-glow">
      <feGaussianBlur in="SourceGraphic" stdDeviation="20"/>
      <feColorMatrix type="matrix" values="0 0 0 0 0.235   0 0 0 0 0.647   0 0 0 0 1  0 0 0 1 0"/>
    </filter>
    
    <filter id="soft-blue-glow">
      <feGaussianBlur in="SourceGraphic" stdDeviation="6"/>
      <feColorMatrix type="matrix" values="0 0 0 0 0.235   0 0 0 0 0.647   0 0 0 0 1  0 0 0 0.6 0"/>
    </filter>
  </defs>
  
  <!-- Main AC Unit -->
  <g transform="translate(150,50)">
    <!-- Shadow -->
    <path d="M20,40 L480,40 L460,290 L40,290 Z" 
          fill="#000000" 
          opacity="0.2" 
          filter="url(#premium-glow)"/>
    
    <!-- Main Body -->
    <g transform="skewY(-10)">
      <!-- Back -->
      <rect x="40" y="40" width="440" height="240" rx="20" 
            fill="#F1F5F9" 
            opacity="0.8"/>
      
      <!-- Side -->
      <path d="M480,40 L520,20 L520,260 L480,280 Z" 
            fill="url(#metallic-edge)" 
            opacity="0.9"/>
      
      <!-- Top -->
      <path d="M40,40 L480,40 L520,20 L80,20 Z" 
            fill="url(#metallic-edge)" 
            opacity="0.95"/>
      
      <!-- Front -->
      <rect x="40" y="40" width="440" height="240" rx="20" 
            fill="url(#premium-white)" 
            stroke="#E2E8F0" 
            stroke-width="2"/>
    </g>
    
    <!-- Air Vents -->
    <g transform="translate(70,70) skewY(-10)">
      <!-- Vent 1 -->
      <rect x="0" y="0" width="380" height="15" rx="7.5" 
            fill="#F8FAFC" stroke="#E2E8F0"/>
      <rect x="0" y="0" width="380" height="15" rx="7.5" 
            fill="#3B82F6" opacity="0.2" filter="url(#soft-blue-glow)"/>
            
      <!-- Vent 2 -->
      <rect x="0" y="30" width="380" height="15" rx="7.5" 
            fill="#F8FAFC" stroke="#E2E8F0"/>
      <rect x="0" y="30" width="380" height="15" rx="7.5" 
            fill="#3B82F6" opacity="0.2" filter="url(#soft-blue-glow)"/>
            
      <!-- Vent 3 -->
      <rect x="0" y="60" width="380" height="15" rx="7.5" 
            fill="#F8FAFC" stroke="#E2E8F0"/>
      <rect x="0" y="60" width="380" height="15" rx="7.5" 
            fill="#3B82F6" opacity="0.2" filter="url(#soft-blue-glow)"/>
            
      <!-- Vent 4 -->
      <rect x="0" y="90" width="380" height="15" rx="7.5" 
            fill="#F8FAFC" stroke="#E2E8F0"/>
      <rect x="0" y="90" width="380" height="15" rx="7.5" 
            fill="#3B82F6" opacity="0.2" filter="url(#soft-blue-glow)"/>
    </g>
    
    <!-- Display -->
    <g transform="translate(70,240) skewY(-10)">
      <rect x="0" y="0" width="120" height="45" rx="10" 
            fill="#1E293B" 
            stroke="#3B82F6"/>
      <text x="60" y="30" 
            fill="#3B82F6" 
            font-family="Arial" 
            font-size="24" 
            font-weight="bold" 
            text-anchor="middle">18°C</text>
      <text x="140" y="30" 
            fill="#3B82F6" 
            font-family="Arial" 
            font-size="14" 
            opacity="0.8">COOL</text>
    </g>
    
    <!-- LEDs -->
    <g transform="translate(240,250) skewY(-10)">
      <circle cx="0" cy="0" r="6" fill="#3B82F6" filter="url(#premium-glow)"/>
      <circle cx="25" cy="0" r="6" fill="#10B981" filter="url(#premium-glow)"/>
    </g>
  </g>
  
  <!-- Cool Air Effect -->
  <g transform="translate(150,290)">
    <!-- Wave 1 -->
    <path d="M40,0 Q250,60 460,0" 
          stroke="#3B82F6" 
          stroke-width="60" 
          fill="none" 
          filter="url(#premium-glow)"
          opacity="0.8"/>
          
    <!-- Wave 2 -->
    <path d="M40,40 Q250,100 460,40" 
          stroke="#3B82F6" 
          stroke-width="50" 
          fill="none" 
          filter="url(#premium-glow)" 
          opacity="0.6"/>
          
    <!-- Wave 3 -->
    <path d="M40,80 Q250,140 460,80" 
          stroke="#3B82F6" 
          stroke-width="40" 
          fill="none" 
          filter="url(#premium-glow)" 
          opacity="0.4"/>
  </g>
  
  <!-- Sparkles -->
  <circle cx="250" cy="100" r="2" fill="#3B82F6" filter="url(#premium-glow)"/>
  <circle cx="300" cy="130" r="2" fill="#3B82F6" filter="url(#premium-glow)"/>
  <circle cx="350" cy="110" r="2" fill="#3B82F6" filter="url(#premium-glow)"/>
  <circle cx="400" cy="140" r="2" fill="#3B82F6" filter="url(#premium-glow)"/>
  <circle cx="450" cy="120" r="2" fill="#3B82F6" filter="url(#premium-glow)"/>
</svg>
