<?xml version="1.0" encoding="UTF-8"?>
<svg width="200" height="200" viewBox="0 0 200 200" xmlns="http://www.w3.org/2000/svg">
  <defs>
    <pattern id="appliances" x="0" y="0" width="100" height="100" patternUnits="userSpaceOnUse">
      <!-- Split AC -->
      <path d="M10 10h30v12h-30a2 2 0 0 1-2-2v-8a2 2 0 0 1 2-2z M13 14h4v4h-4z M20 14h16" fill="none" stroke="currentColor" stroke-width="1" opacity="0.15"/>
      
      <!-- Double Door Fridge -->
      <path d="M60 5v35h20V5H60zM60 22h20M63 15h2M63 30h2" fill="none" stroke="currentColor" stroke-width="1" opacity="0.15"/>
      
      <!-- Front Load Washing Machine -->
      <circle cx="20" cy="70" r="15" fill="none" stroke="currentColor" stroke-width="1" opacity="0.15"/>
      <circle cx="20" cy="70" r="12" fill="none" stroke="currentColor" stroke-width="1" opacity="0.15"/>
      <circle cx="20" cy="70" r="2" fill="none" stroke="currentColor" stroke-width="1" opacity="0.15"/>
      <rect x="15" y="55" width="10" height="3" fill="none" stroke="currentColor" stroke-width="1" opacity="0.15"/>
      
      <!-- Water Purifier -->
      <path d="M60 50h14v30h-14z M60 60h14 M63 55h2 M63 65h2" fill="none" stroke="currentColor" stroke-width="1" opacity="0.15"/>
      <path d="M64 70l3 5l3-5" fill="none" stroke="currentColor" stroke-width="1" opacity="0.15"/>
      
      <!-- Window AC -->
      <path d="M10 85h25v15h-25z M12 90h3 M18 90h14" fill="none" stroke="currentColor" stroke-width="1" opacity="0.15"/>
      
      <!-- Snowflake Symbol -->
      <path d="M85 15l-5 5l5 5 M80 20h10 M85 25v-10" fill="none" stroke="currentColor" stroke-width="1" opacity="0.15"/>
      
      <!-- Water Drops -->
      <path d="M85 60c1.5-3 3-3 4.5 0 M80 70c2-4 4-4 6 0" fill="none" stroke="currentColor" stroke-width="1" opacity="0.15"/>
      
      <!-- Power Symbol -->
      <circle cx="85" cy="85" r="6" fill="none" stroke="currentColor" stroke-width="1" opacity="0.15"/>
      <path d="M85 79v6" fill="none" stroke="currentColor" stroke-width="1" opacity="0.15"/>
    </pattern>
  </defs>
  
  <rect width="200" height="200" fill="url(#appliances)"/>
</svg>
